<svg id="bacon" xmlns="http://www.w3.org/2000/svg" width="619.486" height="45.422" viewBox="0 0 1773 130">
  <metadata><?xpacket begin="﻿" id="W5M0MpCehiHzreSzNTczkc9d"?>
<x:xmpmeta xmlns:x="adobe:ns:meta/" x:xmptk="Adobe XMP Core 5.6-c140 79.160451, 2017/05/06-01:08:21        ">
   <rdf:RDF xmlns:rdf="http://www.w3.org/1999/02/22-rdf-syntax-ns#">
      <rdf:Description rdf:about=""/>
   </rdf:RDF>
</x:xmpmeta>
                                                                                                    
                                                                                                    
                                                                                                    
                                                                                                    
                                                                                                    
                                                                                                    
                                                                                                    
                                                                                                    
                                                                                                    
                                                                                                    
                                                                                                    
                                                                                                    
                                                                                                    
                                                                                                    
                                                                                                    
                                                                                                    
                                                                                                    
                                                                                                    
                                                                                                    
                                                                                                    
                           
<?xpacket end="w"?></metadata>
<defs>
    <style>
      .cls-1, .cls-2, .cls-3 {
        fill-rule: evenodd;
      }

      .cls-1 {
        opacity: 0.1;
      }

      .cls-2 {
        fill: #70161d;
      }

      .cls-3 {
        fill: #913138;
      }
    </style>
  </defs>
  <path class="cls-1" d="M69.57,20.4S-3.907,71.314.2,81.569s38.914,28.689,75.148,28.038,93.333-28.961,156.078-28.038,118.94,43.717,219.664,45.881S583.055,78.443,664.978,79.02,787.831,130.828,901.984,130,984.735,82.79,1098.53,84.118s90.92,43.537,219.66,40.783,149.33-42.6,219.67-43.332,105.21,27.547,184.98,20.391,40.46-30.587,40.46-30.587L1682.37,2.553,98.474,0Z"/>
  <path id="Shape_3_copy_4" data-name="Shape 3 copy 4" class="cls-2" d="M69.57,0.4S-3.907,51.314.2,61.569,39.117,90.258,75.351,89.607s93.333-28.961,156.078-28.038,118.94,43.717,219.664,45.881S583.055,58.443,664.978,59.02,787.831,110.828,901.984,110,984.735,62.79,1098.53,64.118s90.92,43.537,219.66,40.783,149.33-42.6,219.67-43.332,105.21,27.547,184.98,20.391,40.46-30.587,40.46-30.587l-80.93-68.821L98.474-20Z"/>
  <path id="Shape_3_copy_2" data-name="Shape 3 copy 2" class="cls-3" d="M1537.86,29.569c-70.34.73-90.93,40.577-219.67,43.332s-105.87-39.455-219.66-40.783S1016.14,77.169,901.984,78,746.9,27.6,664.978,27.02,551.818,77.614,451.093,75.45,294.173,30.492,231.429,29.569,111.585,56.957,75.351,57.607a124.538,124.538,0,0,1-60.4-15.2C35.382,24.087,69.57.4,69.57,0.4L98.474-20l1583.9,2.549,73.07,62.137c-7.58,2.134-18.12,3.972-32.6,5.271C1643.07,57.116,1608.19,28.839,1537.86,29.569Z"/>
  <path id="Shape_3_copy_3" data-name="Shape 3 copy 3" class="cls-2" d="M1537.86-4.431c-70.34.73-90.93,40.577-219.67,43.332S1212.32-.554,1098.53-1.882,1016.14,43.169,901.984,44,746.9-6.4,664.978-6.98,551.818,43.614,451.093,41.45,294.173-3.508,231.429-4.431,111.585,22.957,75.351,23.607a119.935,119.935,0,0,1-32.184-4.027C57.356,8.859,69.57.4,69.57,0.4L98.474-20l1583.9,2.549,39.39,33.5C1642.76,22.855,1607.87-5.158,1537.86-4.431Z"/>
</svg>
