<svg id="top_bun" data-name="top bun" xmlns="http://www.w3.org/2000/svg" width="600.047" height="242.012" viewBox="0 0 1686 680">
  <defs>
    <style>
      .cls-1 {
        fill: #dbba7e;
      }

      .cls-1, .cls-2, .cls-3 {
        fill-rule: evenodd;
      }

      .cls-2 {
        fill: #bfa16b;
      }

      .cls-3 {
        fill: #fff;
      }
    </style>
  </defs>
  <path class="cls-1" d="M4,649c54.6,44.148,1642.03,34.9,1679,4C1705.62,634.1,1608.73.632,828.1,0.632S-18.787,630.575,4,649Z"/>
  <path class="cls-2" d="M1209.6,370.578C1298.38,244.2,1328,161.809,1337.79,123.623,1653.85,308.857,1699.24,639.422,1683,653c-18.98,15.866-446.69,26.023-865.8,26.176C888.241,641.906,1104.33,520.423,1209.6,370.578Z"/>
  <path class="cls-3" d="M1078.5,134.532c-6.65,6.894-23.22,1.706-37-11.589s-19.58-29.661-12.94-36.556,23.22-1.706,37.01,11.588S1085.15,127.637,1078.5,134.532ZM968.428,210.226c-8.04-17.385-7.512-34.738,1.18-38.758s22.258,6.813,30.3,24.2,7.513,34.738-1.18,38.758S976.469,227.611,968.428,210.226Zm-147.5-79.154c-8.885-3.576-10.289-20.88-3.136-38.649s20.153-29.274,29.038-25.7,10.288,20.88,3.135,38.649S829.812,134.649,820.928,131.072Zm-97.2,101.719c-8.241-4.878-7.013-22.2,2.745-38.679s24.348-25.89,32.589-21.011,7.013,22.2-2.745,38.679S731.967,237.67,723.726,232.791ZM615.6,172.513c-9.154-2.814-12.013-19.937-6.386-38.246s17.611-30.871,26.766-28.057,12.014,19.937,6.386,38.246S624.751,175.327,615.6,172.513Z"/>
</svg>
