<svg id="egg" xmlns="http://www.w3.org/2000/svg" width="514.666" height="73.374" viewBox="0 0 1473 210">
  <metadata><?xpacket begin="﻿" id="W5M0MpCehiHzreSzNTczkc9d"?>
<x:xmpmeta xmlns:x="adobe:ns:meta/" x:xmptk="Adobe XMP Core 5.6-c140 79.160451, 2017/05/06-01:08:21        ">
   <rdf:RDF xmlns:rdf="http://www.w3.org/1999/02/22-rdf-syntax-ns#">
      <rdf:Description rdf:about=""/>
   </rdf:RDF>
</x:xmpmeta>
                                                                                                    
                                                                                                    
                                                                                                    
                                                                                                    
                                                                                                    
                                                                                                    
                                                                                                    
                                                                                                    
                                                                                                    
                                                                                                    
                                                                                                    
                                                                                                    
                                                                                                    
                                                                                                    
                                                                                                    
                                                                                                    
                                                                                                    
                                                                                                    
                                                                                                    
                                                                                                    
                           
<?xpacket end="w"?></metadata>
<defs>
    <style>
      .cls-1 {
        fill: #efe8d0;
      }

      .cls-1, .cls-2, .cls-3, .cls-4 {
        fill-rule: evenodd;
      }

      .cls-2 {
        fill: #efa030;
      }

      .cls-3, .cls-4 {
        fill: #fff;
      }

      .cls-3 {
        opacity: 0.1;
      }

      .cls-4 {
        opacity: 0.23;
      }
    </style>
  </defs>
  <path class="cls-1" d="M1471.63,0c3.84,29.841,2.43,123.266-167.63,116-202.15-8.637-348.31,19.062-433,44s-339.255,85.419-513,20S71.461,156.741,8,62C-7.459,38.922,1.314,18.32,26.366,0H1471.63Z"/>
  <path class="cls-2" d="M924,2S849.071,122.017,660,131,438.411,20.135,437,9a24.1,24.1,0,0,1,.617-9H850Z"/>
  <path class="cls-3" d="M745,3.5C745,39.675,710.75,69,668.5,69S592,39.675,592,3.5q0-1.761.109-3.5H744.891Q745,1.739,745,3.5Z"/>
  <path class="cls-4" d="M276.231,5.716C342.372,19.947,392.977,45.49,389.259,62.768s-60.349,19.748-126.49,5.516S146.023,28.51,149.741,11.232c1.076-5,6.592-8.759,15.482-11.232h79.032C254.519,1.451,265.242,3.352,276.231,5.716Z"/>
</svg>
