<svg id="ketchup" xmlns="http://www.w3.org/2000/svg" width="1621" height="179" viewBox="0 0 1621 179">
  <metadata><?xpacket begin="﻿" id="W5M0MpCehiHzreSzNTczkc9d"?>
<x:xmpmeta xmlns:x="adobe:ns:meta/" x:xmptk="Adobe XMP Core 5.6-c140 79.160451, 2017/05/06-01:08:21        ">
   <rdf:RDF xmlns:rdf="http://www.w3.org/1999/02/22-rdf-syntax-ns#">
      <rdf:Description rdf:about=""/>
   </rdf:RDF>
</x:xmpmeta>
                                                                                                    
                                                                                                    
                                                                                                    
                                                                                                    
                                                                                                    
                                                                                                    
                                                                                                    
                                                                                                    
                                                                                                    
                                                                                                    
                                                                                                    
                                                                                                    
                                                                                                    
                                                                                                    
                                                                                                    
                                                                                                    
                                                                                                    
                                                                                                    
                                                                                                    
                                                                                                    
                           
<?xpacket end="w"?></metadata>
<defs>
    <style>
      .cls-1 {
        fill: #ca2a2c;
        fill-rule: evenodd;
      }
    </style>
  </defs>
  <path id="Rounded_Rectangle_8" data-name="Rounded Rectangle 8" class="cls-1" d="M31,68H354v65a10,10,0,0,0,10,10h10a10,10,0,0,0,10-10V68h827v38a10,10,0,0,0,10,10h2a10,10,0,0,0,10-10V68h17V169a10,10,0,0,0,10,10h9a10,10,0,0,0,10-10V68h311a31,31,0,0,0,31-31V31a31,31,0,0,0-31-31H31A31,31,0,0,0,0,31v6A31,31,0,0,0,31,68Z"/>
</svg>
