<svg id="mayo" xmlns="http://www.w3.org/2000/svg" width="1621" height="179" viewBox="0 0 1621 179">
  <metadata><?xpacket begin="﻿" id="W5M0MpCehiHzreSzNTczkc9d"?>
<x:xmpmeta xmlns:x="adobe:ns:meta/" x:xmptk="Adobe XMP Core 5.6-c140 79.160451, 2017/05/06-01:08:21        ">
   <rdf:RDF xmlns:rdf="http://www.w3.org/1999/02/22-rdf-syntax-ns#">
      <rdf:Description rdf:about=""/>
   </rdf:RDF>
</x:xmpmeta>
                                                                                                    
                                                                                                    
                                                                                                    
                                                                                                    
                                                                                                    
                                                                                                    
                                                                                                    
                                                                                                    
                                                                                                    
                                                                                                    
                                                                                                    
                                                                                                    
                                                                                                    
                                                                                                    
                                                                                                    
                                                                                                    
                                                                                                    
                                                                                                    
                                                                                                    
                                                                                                    
                           
<?xpacket end="w"?></metadata>
<defs>
    <style>
      .cls-1 {
        fill: #ebe0ba;
        fill-rule: evenodd;
      }
    </style>
  </defs>
  <path id="Rounded_Rectangle_8" data-name="Rounded Rectangle 8" class="cls-1" d="M1590,68H1267v65a10,10,0,0,1-10,10h-10a10,10,0,0,1-10-10V68H410v38a10,10,0,0,1-10,10h-2a10,10,0,0,1-10-10V68H371V169a10,10,0,0,1-10,10h-9a10,10,0,0,1-10-10V68H31A31,31,0,0,1,0,37V31A31,31,0,0,1,31,0H1590a31,31,0,0,1,31,31v6A31,31,0,0,1,1590,68Z"/>
</svg>
