<svg id="onions" xmlns="http://www.w3.org/2000/svg" width="493.702" height="31.446" viewBox="0 0 1413 90">
  <metadata><?xpacket begin="﻿" id="W5M0MpCehiHzreSzNTczkc9d"?>
<x:xmpmeta xmlns:x="adobe:ns:meta/" x:xmptk="Adobe XMP Core 5.6-c140 79.160451, 2017/05/06-01:08:21        ">
   <rdf:RDF xmlns:rdf="http://www.w3.org/1999/02/22-rdf-syntax-ns#">
      <rdf:Description rdf:about=""/>
   </rdf:RDF>
</x:xmpmeta>
                                                                                                    
                                                                                                    
                                                                                                    
                                                                                                    
                                                                                                    
                                                                                                    
                                                                                                    
                                                                                                    
                                                                                                    
                                                                                                    
                                                                                                    
                                                                                                    
                                                                                                    
                                                                                                    
                                                                                                    
                                                                                                    
                                                                                                    
                                                                                                    
                                                                                                    
                                                                                                    
                           
<?xpacket end="w"?></metadata>
<defs>
    <style>
      .cls-1 {
        fill: #a84071;
      }

      .cls-1, .cls-2 {
        fill-rule: evenodd;
      }

      .cls-2 {
        fill: #bb6f9c;
      }
    </style>
  </defs>
  <path id="Rounded_Rectangle_3_copy" data-name="Rounded Rectangle 3 copy" class="cls-1" d="M1378.5,90h-625A34.5,34.5,0,0,1,719,55.5v-21A34.5,34.5,0,0,1,753.5,0h625A34.5,34.5,0,0,1,1413,34.5v21A34.5,34.5,0,0,1,1378.5,90Zm-719,0H34.5A34.5,34.5,0,0,1,0,55.5v-21A34.5,34.5,0,0,1,34.5,0h625A34.5,34.5,0,0,1,694,34.5v21A34.5,34.5,0,0,1,659.5,90Z"/>
  <path id="Rounded_Rectangle_4_copy" data-name="Rounded Rectangle 4 copy" class="cls-2" d="M639,54H59A10,10,0,0,1,49,44V8a9.984,9.984,0,0,1,4-8H645a9.983,9.983,0,0,1,4,8V44A10,10,0,0,1,639,54Zm725,0H784a10,10,0,0,1-10-10V8a9.983,9.983,0,0,1,4-8h592a9.981,9.981,0,0,1,4,8V44A10,10,0,0,1,1364,54Z"/>
</svg>
