<svg id="pickles" xmlns="http://www.w3.org/2000/svg" width="544.715" height="46.47" viewBox="0 0 1559 133">
  <metadata><?xpacket begin="﻿" id="W5M0MpCehiHzreSzNTczkc9d"?>
<x:xmpmeta xmlns:x="adobe:ns:meta/" x:xmptk="Adobe XMP Core 5.6-c140 79.160451, 2017/05/06-01:08:21        ">
   <rdf:RDF xmlns:rdf="http://www.w3.org/1999/02/22-rdf-syntax-ns#">
      <rdf:Description rdf:about=""/>
   </rdf:RDF>
</x:xmpmeta>
                                                                                                    
                                                                                                    
                                                                                                    
                                                                                                    
                                                                                                    
                                                                                                    
                                                                                                    
                                                                                                    
                                                                                                    
                                                                                                    
                                                                                                    
                                                                                                    
                                                                                                    
                                                                                                    
                                                                                                    
                                                                                                    
                                                                                                    
                                                                                                    
                                                                                                    
                                                                                                    
                           
<?xpacket end="w"?></metadata>
<defs>
    <style>
      .cls-1 {
        fill: #58781b;
      }

      .cls-1, .cls-2 {
        fill-rule: evenodd;
      }

      .cls-2 {
        fill: #739334;
      }
    </style>
  </defs>
  <path id="Shape_3_copy" data-name="Shape 3 copy" class="cls-1" d="M7,21S116.262,129.642,226,132c100.725,2.164,192.077-94.577,274-94s189.831,93.828,303.984,93S899.208,32.672,1013,34s78.45,94.655,207.19,91.9,149.33-42.6,219.67-43.332C1607.42,80.829,1549,0,1549,0L0.474,1Z"/>
  <path id="Shape_3_copy_5" data-name="Shape 3 copy 5" class="cls-2" d="M1438.86,39.569c-70.34.73-90.93,40.577-219.67,43.332-104.45,2.235-100.9-58.774-156.6-82.585L1549,0a50.431,50.431,0,0,1,3.47,5.845C1541.55,23.257,1511.36,38.816,1438.86,39.569ZM802.984,88c-97.4.708-190.246-67.07-266.29-87.342l421.113-.273C900.48,24.6,894.455,87.334,802.984,88ZM225,89C147.745,87.34,70.726,33.005,31.9.983l429.4-.278C389.319,21.347,310.539,90.838,225,89Z"/>
</svg>
