<svg id="salad" xmlns="http://www.w3.org/2000/svg" width="600.322" height="75.802" viewBox="0 0 1774 224">
  <defs>
    <style>
      .cls-1 {
        fill: #62aa5a;
      }

      .cls-1, .cls-2, .cls-3 {
        fill-rule: evenodd;
      }

      .cls-2 {
        fill: #4c9244;
      }

      .cls-3 {
        fill: #fff;
        opacity: 0.1;
      }
    </style>
  </defs>
  <path class="cls-1" d="M1.046,113.669c1.65,23.56,38.912,65.06,75.145,63.584s93.328-65.676,156.069-63.584,118.934,99.14,219.653,104.047S583.868,106.579,665.786,107.889,788.634,225.378,902.78,223.5s82.747-107.058,196.53-104.048,90.92,98.734,219.66,92.487,149.32-96.611,219.65-98.267,105.2,62.47,184.97,46.243,40.46-69.365,40.46-69.365S1746.52,70.679,1720,44c-11.61-11.685-40.17-34.158-52-38C1652.97,1.12,126.579-2.5,95,4,80.359,7.014,67.522,8.281,60,16,24.02,52.921-2.094,68.817,1.046,113.669Z"/>
  <path id="Shape_6_copy" data-name="Shape 6 copy" class="cls-2" d="M1720,44c26.52,26.679,44.05,46.547,44.05,46.547s39.31,53.138-40.46,69.365-114.64-47.9-184.97-46.243-90.92,92.02-219.65,98.267-105.87-89.476-219.66-92.487S1016.93,221.615,902.78,223.5a152.762,152.762,0,0,1-55.615-9.273c38.214-17.068,206.025-95.728,328.625-212.7C1446.2,2.533,1662.39,4.179,1668,6,1679.83,9.842,1708.39,32.315,1720,44Z"/>
  <path class="cls-3" d="M610.875,50.063c-143.4,0-269.481-19.437-342.116-48.816C436.04,0.322,700.076.3,953.944,0.867,881.459,30.459,754.894,50.063,610.875,50.063Z"/>
</svg>
